<?xml version="1.0" standalone="no"?>
<!DOCTYPE svg PUBLIC "-//W3C//DTD SVG 20010904//EN"
 "http://www.w3.org/TR/2001/REC-SVG-20010904/DTD/svg10.dtd">
<svg version="1.0" xmlns="http://www.w3.org/2000/svg"
 width="577.000000pt" height="575.000000pt" viewBox="0 0 577.000000 575.000000"
 preserveAspectRatio="xMidYMid meet">

<g transform="translate(0.000000,575.000000) scale(0.100000,-0.100000)"
fill="#000000" stroke="none">
<path d="M2434 4361 c-110 -68 -145 -222 -125 -550 12 -217 14 -350 5 -427
l-6 -51 -49 -12 c-73 -19 -88 -50 -33 -71 21 -8 24 -16 24 -60 0 -30 -12 -85
-30 -138 -42 -120 -42 -193 0 -276 33 -67 124 -175 135 -164 4 4 -16 33 -45
65 -101 110 -126 209 -85 338 l19 60 6 -70 c8 -88 21 -112 73 -136 77 -35 182
-21 242 32 l35 31 25 -30 c35 -42 74 -55 150 -50 45 3 73 10 92 25 39 28 37
49 -4 45 l-31 -3 -4 191 c-4 232 1 223 -128 218 -125 -5 -185 -44 -117 -76 26
-13 27 -15 27 -102 0 -130 -28 -190 -89 -190 -44 0 -51 22 -51 173 0 179 -5
191 -80 195 l-55 3 -4 247 c-10 564 -7 607 45 699 60 104 162 115 322 34 133
-67 324 -237 558 -496 l90 -100 -13 -145 c-7 -80 -20 -172 -28 -204 -20 -76
-65 -177 -76 -170 -5 3 -9 25 -9 49 0 65 -26 79 -133 72 -97 -6 -167 -30 -167
-58 0 -15 7 -19 40 -19 50 0 53 -8 48 -175 -3 -126 -3 -127 -32 -150 -49 -39
-31 -55 62 -55 l78 0 16 -68 c19 -80 56 -172 70 -172 6 0 8 6 5 13 -38 85 -58
143 -63 181 l-7 46 66 0 c76 0 87 12 48 53 -23 25 -26 38 -29 112 -4 81 -3 86
42 184 53 115 72 189 81 316 11 145 31 253 70 365 20 58 45 157 56 220 26 150
35 181 59 208 64 68 179 -14 264 -190 175 -362 256 -976 215 -1631 -17 -283
-26 -310 -28 -81 -1 248 3 239 -113 238 -98 -2 -162 -21 -166 -52 -3 -17 3
-21 35 -24 l38 -3 3 -263 2 -263 -25 -23 c-14 -13 -25 -31 -25 -40 0 -14 15
-16 110 -16 98 0 110 -2 110 -17 -1 -26 -33 -164 -65 -276 l-28 -99 -76 -57
c-207 -158 -430 -397 -534 -572 -74 -126 -72 -176 6 -166 131 18 305 175 432
391 55 94 159 312 171 359 4 19 36 49 103 99 128 96 260 229 294 297 36 73 37
134 2 157 -14 9 -43 17 -65 18 -22 0 -40 4 -40 9 0 4 22 45 49 90 78 131 135
277 215 555 8 28 11 52 6 52 -5 0 -15 -19 -21 -42 -61 -220 -127 -399 -186
-506 -58 -106 -104 -172 -119 -172 -8 0 -32 -16 -54 -36 -35 -31 -41 -34 -47
-19 -5 15 10 214 23 295 2 14 9 134 16 268 33 676 -79 1336 -278 1633 -105
156 -230 173 -269 36 -8 -29 -21 -96 -30 -150 -8 -54 -34 -155 -56 -225 -23
-70 -43 -133 -45 -141 -3 -8 -28 13 -66 55 -111 125 -372 379 -443 433 -38 29
-108 71 -154 94 -70 35 -95 42 -155 45 -57 2 -77 -1 -102 -17z m1801 -2283
c55 -25 39 -97 -45 -209 -27 -36 -75 -88 -107 -115 -72 -62 -195 -155 -200
-151 -2 2 5 28 16 58 18 53 53 197 66 272 5 30 10 37 29 37 14 0 45 22 84 60
65 64 99 75 157 48z m-175 -43 c-13 -14 -26 -23 -28 -20 -7 7 29 45 41 45 6 0
0 -11 -13 -25z m-268 -611 c-59 -134 -137 -274 -203 -365 -95 -130 -246 -247
-334 -257 -41 -4 -45 -3 -45 17 0 64 145 271 312 446 91 95 306 280 315 271 2
-1 -18 -52 -45 -112z"/>
<path d="M3023 3596 c-38 -17 -53 -43 -53 -91 0 -76 47 -110 143 -103 52 4 64
9 88 36 20 22 29 43 29 67 0 24 -9 45 -29 67 -24 28 -35 32 -87 35 -37 2 -71
-2 -91 -11z"/>
<path d="M933 3564 c-4 -10 4 -24 23 -39 l29 -23 0 -282 0 -282 -29 -23 c-19
-15 -27 -29 -23 -39 6 -14 40 -16 301 -16 335 0 306 -8 324 90 12 64 7 80 -23
80 -16 0 -30 -11 -46 -36 -36 -58 -71 -74 -166 -74 -72 0 -84 2 -93 20 -7 14
-10 110 -8 290 l3 270 28 26 c15 14 26 31 24 37 -2 8 -55 13 -171 15 -146 2
-167 0 -173 -14z"/>
<path d="M1793 3331 c-60 -16 -121 -60 -150 -109 -24 -40 -28 -58 -28 -127 0
-70 4 -86 28 -128 51 -86 141 -124 272 -114 94 7 159 38 200 96 29 41 30 48
30 145 0 97 -2 105 -29 144 -42 61 -116 95 -215 98 -42 2 -90 -1 -108 -5z
m101 -74 c20 -29 45 -151 53 -248 5 -71 4 -77 -17 -92 -49 -34 -71 4 -100 178
-24 148 -20 185 25 185 15 0 31 -9 39 -23z"/>
<path d="M3497 3329 c-124 -29 -190 -108 -191 -229 -2 -172 113 -271 299 -257
121 9 189 51 221 133 19 49 14 74 -14 74 -14 0 -25 -14 -37 -46 -15 -38 -25
-50 -62 -66 -46 -20 -90 -18 -127 8 -19 13 -56 63 -56 77 0 4 26 7 58 7 86 0
160 25 204 70 42 41 47 69 24 123 -37 90 -182 138 -319 106z m122 -76 c27 -34
35 -65 27 -108 -8 -41 -45 -65 -101 -65 -33 0 -35 2 -37 33 -4 83 9 141 36
159 23 15 55 7 75 -19z"/>
<path d="M4130 2647 c-54 -27 -52 -102 5 -136 43 -25 44 -48 5 -86 -23 -22
-27 -32 -19 -42 6 -7 15 -13 19 -13 17 0 69 52 99 97 25 37 31 57 31 99 0 45
-4 56 -26 73 -30 24 -77 27 -114 8z"/>
<path d="M1943 2636 c-103 -33 -153 -89 -153 -175 0 -81 32 -126 133 -188 l57
-35 -21 -29 c-23 -33 -27 -34 -53 -14 -28 21 -89 19 -109 -3 -10 -11 -17 -36
-17 -60 0 -39 6 -48 65 -106 42 -42 65 -72 65 -87 0 -14 -24 -47 -65 -90 -36
-37 -65 -74 -65 -81 0 -8 9 -41 20 -73 29 -85 26 -141 -9 -198 -39 -60 -98
-102 -251 -178 -244 -121 -330 -180 -330 -225 0 -34 24 -46 100 -52 91 -6 135
11 248 95 169 127 250 145 291 64 26 -51 48 -67 114 -86 31 -9 57 -20 57 -24
0 -5 -7 -25 -16 -46 -19 -47 -11 -86 28 -131 41 -47 74 -45 134 7 64 55 82 61
162 49 162 -23 294 -6 527 70 66 22 161 51 210 66 50 14 130 46 178 71 100 52
312 190 341 222 35 38 -9 25 -107 -32 -140 -82 -259 -145 -402 -214 -116 -56
-137 -63 -191 -63 -76 0 -98 16 -117 85 -13 49 -15 51 -90 87 -84 41 -95 55
-120 152 -27 102 -58 114 -192 76 -97 -28 -146 -26 -184 6 -34 28 -41 68 -15
78 9 4 60 11 113 16 162 17 245 50 277 112 9 18 23 73 30 123 8 49 19 102 25
116 10 27 12 27 88 22 133 -9 230 36 267 124 17 39 18 150 3 190 -13 34 -55
80 -91 99 -24 12 -26 17 -18 40 6 14 10 35 9 47 0 15 -6 8 -16 -20 l-15 -43
-72 6 c-175 15 -285 -69 -286 -219 0 -89 37 -159 103 -193 26 -14 27 -16 12
-43 -8 -16 -19 -67 -24 -113 -12 -106 -21 -128 -66 -165 -46 -39 -88 -51 -231
-67 -134 -16 -153 -26 -138 -78 12 -42 65 -78 114 -78 21 0 77 11 124 25 128
37 148 26 176 -93 14 -62 46 -104 92 -122 92 -36 97 -40 112 -94 18 -60 37
-81 85 -93 33 -9 32 -9 -50 -36 -154 -50 -219 -59 -405 -55 l-171 3 -41 -37
c-76 -69 -103 -70 -142 -5 -23 38 -24 58 -6 112 17 47 9 61 -37 70 -61 13 -96
37 -122 81 -32 54 -56 68 -107 60 -54 -9 -101 -34 -194 -104 -44 -33 -97 -69
-120 -80 -83 -42 -205 -34 -212 15 -5 33 65 80 279 189 274 139 339 205 324
333 -4 30 -13 70 -21 89 -23 56 -18 71 51 137 66 63 76 86 54 127 -9 17 -8 19
8 14 85 -27 210 -33 295 -15 142 30 219 113 205 221 -10 78 -79 135 -242 204
-49 20 -94 40 -98 44 -4 4 20 15 54 25 48 15 64 16 77 7 78 -57 110 -64 150
-36 16 11 22 25 22 51 0 55 -65 114 -154 142 -79 24 -225 28 -293 7z m195 -55
c36 -26 68 -80 50 -84 -7 -2 -41 -13 -75 -24 -55 -17 -64 -18 -90 -5 -78 40
-95 89 -40 123 39 25 113 20 155 -10z m586 -227 c21 -8 20 -28 0 -45 -14 -11
-15 -26 -10 -84 3 -38 9 -83 12 -100 3 -18 0 -38 -9 -49 -13 -18 -16 -11 -31
70 -32 174 -21 231 38 208z m50 -131 c28 -155 19 -221 -31 -211 -19 4 -21 24
-6 73 7 20 6 54 -3 104 -12 72 -6 121 15 121 5 0 16 -39 25 -87z m-657 -43
c105 -52 140 -83 129 -118 -13 -39 -45 -56 -99 -56 -80 2 -131 35 -183 121
l-22 37 26 32 c15 18 32 33 37 33 6 1 56 -22 112 -49z m1353 -844 c0 -20 -364
-215 -377 -203 -3 3 44 30 103 61 60 30 145 75 189 100 82 48 85 49 85 42z"/>
<path d="M2938 2613 c12 -2 30 -2 40 0 9 3 -1 5 -23 4 -22 0 -30 -2 -17 -4z"/>
<path d="M3055 2590 c3 -5 8 -10 11 -10 2 0 4 5 4 10 0 6 -5 10 -11 10 -5 0
-7 -4 -4 -10z"/>
<path d="M3210 2590 c0 -5 5 -10 11 -10 5 0 7 5 4 10 -3 6 -8 10 -11 10 -2 0
-4 -4 -4 -10z"/>
<path d="M2430 2550 l34 -30 -27 0 c-16 0 -26 -4 -23 -9 3 -4 17 -6 31 -3 14
2 46 -3 70 -13 40 -15 46 -15 60 -2 23 23 19 27 -27 27 -31 0 -56 9 -88 30
-58 38 -75 38 -30 0z"/>
<path d="M3098 2573 c7 -3 16 -2 19 1 4 3 -2 6 -13 5 -11 0 -14 -3 -6 -6z"/>
<path d="M3159 2540 c25 -21 41 -26 41 -12 0 9 -44 32 -58 32 -4 -1 4 -10 17
-20z"/>
<path d="M3241 2539 c8 -16 8 -23 -1 -29 -9 -5 -3 -15 18 -30 17 -13 58 -64
91 -115 56 -85 61 -96 61 -148 0 -116 -63 -193 -114 -141 -13 12 -16 40 -16
144 0 141 -9 177 -48 187 -35 9 -145 -2 -178 -18 -38 -19 -43 -45 -10 -53 l26
-6 0 -131 c0 -185 20 -223 129 -236 63 -7 129 10 172 47 33 27 34 27 44 6 19
-39 72 -58 150 -53 l70 4 45 -59 c24 -32 50 -58 57 -58 18 0 17 2 -22 80 -19
38 -35 76 -35 85 0 8 -4 15 -10 15 -5 0 -21 18 -35 40 -23 37 -25 48 -25 170
0 159 -6 170 -98 170 -31 0 -72 -4 -89 -9 -30 -9 -36 -6 -83 35 -27 25 -59 63
-72 85 -22 40 -48 57 -27 18z m396 -516 c-11 -10 -27 8 -27 30 l0 21 16 -22
c9 -13 14 -26 11 -29z m47 -73 l17 -35 -26 28 c-14 16 -23 33 -19 38 7 13 7
12 28 -31z"/>
<path d="M2640 2500 c0 -5 9 -10 21 -10 11 0 17 5 14 10 -3 6 -13 10 -21 10
-8 0 -14 -4 -14 -10z"/>
<path d="M2586 2471 c11 -12 133 -41 174 -41 60 0 64 33 5 45 l-30 6 25 -15
25 -15 -30 0 c-16 0 -48 4 -70 8 -110 24 -110 24 -99 12z"/>
<path d="M4458 2411 c-99 -32 -140 -100 -103 -171 20 -39 66 -72 155 -111 102
-44 132 -66 128 -93 -2 -17 -11 -22 -43 -24 -49 -4 -95 19 -120 60 -28 48 -53
68 -83 68 -59 0 -80 -72 -34 -114 47 -42 114 -60 222 -60 160 -1 226 37 237
137 9 74 -45 120 -195 168 -108 35 -137 69 -80 97 35 17 70 3 130 -54 50 -47
77 -54 102 -28 34 33 12 78 -52 107 -52 22 -215 34 -264 18z"/>
</g>
</svg>
